<mxfile host="Electron" modified="2023-11-09T09:27:52.939Z" agent="Mozilla/5.0 (Windows NT 10.0; Win64; x64) AppleWebKit/537.36 (KHTML, like Gecko) draw.io/22.0.3 Chrome/114.0.5735.289 Electron/25.8.4 Safari/537.36" etag="PCQxJUShKWIHPMCR9T25" version="22.0.3" type="device">
  <diagram name="Trang-1" id="HX3A5sdUYCtEA0GKkXCx">
    <mxGraphModel dx="777" dy="547" grid="1" gridSize="10" guides="1" tooltips="1" connect="1" arrows="1" fold="1" page="1" pageScale="1" pageWidth="1169" pageHeight="1654" math="0" shadow="0">
      <root>
        <mxCell id="0" />
        <mxCell id="1" parent="0" />
        <mxCell id="wxU6UQ4t3PHvKsyx-IZS-3" value="" style="edgeStyle=orthogonalEdgeStyle;rounded=0;orthogonalLoop=1;jettySize=auto;html=1;" edge="1" parent="1" source="wxU6UQ4t3PHvKsyx-IZS-1" target="wxU6UQ4t3PHvKsyx-IZS-2">
          <mxGeometry relative="1" as="geometry" />
        </mxCell>
        <mxCell id="wxU6UQ4t3PHvKsyx-IZS-1" value="start" style="ellipse;whiteSpace=wrap;html=1;" vertex="1" parent="1">
          <mxGeometry x="310" y="90" width="120" height="80" as="geometry" />
        </mxCell>
        <mxCell id="wxU6UQ4t3PHvKsyx-IZS-5" value="" style="edgeStyle=orthogonalEdgeStyle;rounded=0;orthogonalLoop=1;jettySize=auto;html=1;" edge="1" parent="1" source="wxU6UQ4t3PHvKsyx-IZS-2" target="wxU6UQ4t3PHvKsyx-IZS-4">
          <mxGeometry relative="1" as="geometry" />
        </mxCell>
        <mxCell id="wxU6UQ4t3PHvKsyx-IZS-2" value="số điện mới&amp;nbsp;&lt;br&gt;số điện cũ&lt;br&gt;số điện&lt;br&gt;số tiền&amp;nbsp;&lt;br&gt;" style="shape=parallelogram;perimeter=parallelogramPerimeter;whiteSpace=wrap;html=1;fixedSize=1;" vertex="1" parent="1">
          <mxGeometry x="310" y="210" width="120" height="60" as="geometry" />
        </mxCell>
        <mxCell id="wxU6UQ4t3PHvKsyx-IZS-8" value="" style="edgeStyle=orthogonalEdgeStyle;rounded=0;orthogonalLoop=1;jettySize=auto;html=1;" edge="1" parent="1" source="wxU6UQ4t3PHvKsyx-IZS-4">
          <mxGeometry relative="1" as="geometry">
            <mxPoint x="370" y="480" as="targetPoint" />
          </mxGeometry>
        </mxCell>
        <mxCell id="wxU6UQ4t3PHvKsyx-IZS-4" value="số điện=số điện mới -số điện mới&amp;nbsp;" style="whiteSpace=wrap;html=1;" vertex="1" parent="1">
          <mxGeometry x="310" y="370" width="120" height="60" as="geometry" />
        </mxCell>
        <mxCell id="wxU6UQ4t3PHvKsyx-IZS-12" value="" style="edgeStyle=orthogonalEdgeStyle;rounded=0;orthogonalLoop=1;jettySize=auto;html=1;" edge="1" parent="1" source="wxU6UQ4t3PHvKsyx-IZS-9" target="wxU6UQ4t3PHvKsyx-IZS-11">
          <mxGeometry relative="1" as="geometry" />
        </mxCell>
        <mxCell id="wxU6UQ4t3PHvKsyx-IZS-21" value="" style="edgeStyle=orthogonalEdgeStyle;rounded=0;orthogonalLoop=1;jettySize=auto;html=1;" edge="1" parent="1" source="wxU6UQ4t3PHvKsyx-IZS-9" target="wxU6UQ4t3PHvKsyx-IZS-20">
          <mxGeometry relative="1" as="geometry" />
        </mxCell>
        <mxCell id="wxU6UQ4t3PHvKsyx-IZS-9" value="0&amp;lt;số điện&amp;lt;50" style="rhombus;whiteSpace=wrap;html=1;" vertex="1" parent="1">
          <mxGeometry x="330" y="480" width="80" height="80" as="geometry" />
        </mxCell>
        <mxCell id="wxU6UQ4t3PHvKsyx-IZS-10" value="end" style="ellipse;whiteSpace=wrap;html=1;" vertex="1" parent="1">
          <mxGeometry x="310" y="1210" width="120" height="80" as="geometry" />
        </mxCell>
        <mxCell id="wxU6UQ4t3PHvKsyx-IZS-14" value="" style="edgeStyle=orthogonalEdgeStyle;rounded=0;orthogonalLoop=1;jettySize=auto;html=1;" edge="1" parent="1" source="wxU6UQ4t3PHvKsyx-IZS-11" target="wxU6UQ4t3PHvKsyx-IZS-13">
          <mxGeometry relative="1" as="geometry" />
        </mxCell>
        <mxCell id="wxU6UQ4t3PHvKsyx-IZS-25" value="" style="edgeStyle=orthogonalEdgeStyle;rounded=0;orthogonalLoop=1;jettySize=auto;html=1;" edge="1" parent="1" source="wxU6UQ4t3PHvKsyx-IZS-11" target="wxU6UQ4t3PHvKsyx-IZS-24">
          <mxGeometry relative="1" as="geometry" />
        </mxCell>
        <mxCell id="wxU6UQ4t3PHvKsyx-IZS-11" value="50&amp;lt;số điện&amp;lt;100" style="rhombus;whiteSpace=wrap;html=1;" vertex="1" parent="1">
          <mxGeometry x="330" y="600" width="80" height="80" as="geometry" />
        </mxCell>
        <mxCell id="wxU6UQ4t3PHvKsyx-IZS-16" value="" style="edgeStyle=orthogonalEdgeStyle;rounded=0;orthogonalLoop=1;jettySize=auto;html=1;" edge="1" parent="1" source="wxU6UQ4t3PHvKsyx-IZS-13" target="wxU6UQ4t3PHvKsyx-IZS-15">
          <mxGeometry relative="1" as="geometry" />
        </mxCell>
        <mxCell id="wxU6UQ4t3PHvKsyx-IZS-28" value="" style="edgeStyle=orthogonalEdgeStyle;rounded=0;orthogonalLoop=1;jettySize=auto;html=1;" edge="1" parent="1" source="wxU6UQ4t3PHvKsyx-IZS-13" target="wxU6UQ4t3PHvKsyx-IZS-27">
          <mxGeometry relative="1" as="geometry" />
        </mxCell>
        <mxCell id="wxU6UQ4t3PHvKsyx-IZS-13" value="100&amp;lt;số điện&amp;lt;150" style="rhombus;whiteSpace=wrap;html=1;" vertex="1" parent="1">
          <mxGeometry x="330" y="760" width="80" height="80" as="geometry" />
        </mxCell>
        <mxCell id="wxU6UQ4t3PHvKsyx-IZS-18" value="" style="edgeStyle=orthogonalEdgeStyle;rounded=0;orthogonalLoop=1;jettySize=auto;html=1;" edge="1" parent="1" source="wxU6UQ4t3PHvKsyx-IZS-15" target="wxU6UQ4t3PHvKsyx-IZS-17">
          <mxGeometry relative="1" as="geometry" />
        </mxCell>
        <mxCell id="wxU6UQ4t3PHvKsyx-IZS-31" value="" style="edgeStyle=orthogonalEdgeStyle;rounded=0;orthogonalLoop=1;jettySize=auto;html=1;" edge="1" parent="1" source="wxU6UQ4t3PHvKsyx-IZS-15" target="wxU6UQ4t3PHvKsyx-IZS-30">
          <mxGeometry relative="1" as="geometry" />
        </mxCell>
        <mxCell id="wxU6UQ4t3PHvKsyx-IZS-15" value="150&amp;lt;số điện&amp;lt;200" style="rhombus;whiteSpace=wrap;html=1;" vertex="1" parent="1">
          <mxGeometry x="330" y="920" width="80" height="80" as="geometry" />
        </mxCell>
        <mxCell id="wxU6UQ4t3PHvKsyx-IZS-19" value="" style="edgeStyle=orthogonalEdgeStyle;rounded=0;orthogonalLoop=1;jettySize=auto;html=1;" edge="1" parent="1" source="wxU6UQ4t3PHvKsyx-IZS-17" target="wxU6UQ4t3PHvKsyx-IZS-10">
          <mxGeometry relative="1" as="geometry" />
        </mxCell>
        <mxCell id="wxU6UQ4t3PHvKsyx-IZS-33" style="edgeStyle=orthogonalEdgeStyle;rounded=0;orthogonalLoop=1;jettySize=auto;html=1;exitX=1;exitY=0.5;exitDx=0;exitDy=0;" edge="1" parent="1" source="wxU6UQ4t3PHvKsyx-IZS-17">
          <mxGeometry relative="1" as="geometry">
            <mxPoint x="480" y="1120" as="targetPoint" />
          </mxGeometry>
        </mxCell>
        <mxCell id="wxU6UQ4t3PHvKsyx-IZS-17" value="200&amp;lt;số điện" style="rhombus;whiteSpace=wrap;html=1;" vertex="1" parent="1">
          <mxGeometry x="330" y="1080" width="80" height="80" as="geometry" />
        </mxCell>
        <mxCell id="wxU6UQ4t3PHvKsyx-IZS-20" value="số tiền điện =số điện*10000" style="whiteSpace=wrap;html=1;" vertex="1" parent="1">
          <mxGeometry x="470" y="490" width="120" height="60" as="geometry" />
        </mxCell>
        <mxCell id="wxU6UQ4t3PHvKsyx-IZS-23" style="edgeStyle=orthogonalEdgeStyle;rounded=0;orthogonalLoop=1;jettySize=auto;html=1;entryX=1;entryY=0.625;entryDx=0;entryDy=0;entryPerimeter=0;" edge="1" parent="1" source="wxU6UQ4t3PHvKsyx-IZS-20" target="wxU6UQ4t3PHvKsyx-IZS-10">
          <mxGeometry relative="1" as="geometry">
            <Array as="points">
              <mxPoint x="710" y="520" />
              <mxPoint x="710" y="1260" />
            </Array>
          </mxGeometry>
        </mxCell>
        <mxCell id="wxU6UQ4t3PHvKsyx-IZS-24" value="số tiền điện =&amp;nbsp;số điện*15000" style="whiteSpace=wrap;html=1;" vertex="1" parent="1">
          <mxGeometry x="470" y="610" width="120" height="60" as="geometry" />
        </mxCell>
        <mxCell id="wxU6UQ4t3PHvKsyx-IZS-26" style="edgeStyle=orthogonalEdgeStyle;rounded=0;orthogonalLoop=1;jettySize=auto;html=1;entryX=1;entryY=0.75;entryDx=0;entryDy=0;entryPerimeter=0;" edge="1" parent="1" source="wxU6UQ4t3PHvKsyx-IZS-24" target="wxU6UQ4t3PHvKsyx-IZS-10">
          <mxGeometry relative="1" as="geometry">
            <Array as="points">
              <mxPoint x="710" y="640" />
              <mxPoint x="710" y="1260" />
              <mxPoint x="430" y="1260" />
            </Array>
          </mxGeometry>
        </mxCell>
        <mxCell id="wxU6UQ4t3PHvKsyx-IZS-29" style="edgeStyle=orthogonalEdgeStyle;rounded=0;orthogonalLoop=1;jettySize=auto;html=1;entryX=1;entryY=0.5;entryDx=0;entryDy=0;" edge="1" parent="1" source="wxU6UQ4t3PHvKsyx-IZS-27" target="wxU6UQ4t3PHvKsyx-IZS-10">
          <mxGeometry relative="1" as="geometry">
            <Array as="points">
              <mxPoint x="710" y="800" />
              <mxPoint x="710" y="1250" />
            </Array>
          </mxGeometry>
        </mxCell>
        <mxCell id="wxU6UQ4t3PHvKsyx-IZS-27" value="số tiền điện =&amp;nbsp;số điện*20000" style="whiteSpace=wrap;html=1;" vertex="1" parent="1">
          <mxGeometry x="470" y="770" width="120" height="60" as="geometry" />
        </mxCell>
        <mxCell id="wxU6UQ4t3PHvKsyx-IZS-32" style="edgeStyle=orthogonalEdgeStyle;rounded=0;orthogonalLoop=1;jettySize=auto;html=1;entryX=1;entryY=0.5;entryDx=0;entryDy=0;" edge="1" parent="1" source="wxU6UQ4t3PHvKsyx-IZS-30" target="wxU6UQ4t3PHvKsyx-IZS-10">
          <mxGeometry relative="1" as="geometry">
            <Array as="points">
              <mxPoint x="710" y="960" />
              <mxPoint x="710" y="1250" />
            </Array>
          </mxGeometry>
        </mxCell>
        <mxCell id="wxU6UQ4t3PHvKsyx-IZS-30" value="số tiền điện =&amp;nbsp;số điện*25000" style="whiteSpace=wrap;html=1;" vertex="1" parent="1">
          <mxGeometry x="470" y="930" width="120" height="60" as="geometry" />
        </mxCell>
        <mxCell id="wxU6UQ4t3PHvKsyx-IZS-35" style="edgeStyle=orthogonalEdgeStyle;rounded=0;orthogonalLoop=1;jettySize=auto;html=1;entryX=1;entryY=0.5;entryDx=0;entryDy=0;" edge="1" parent="1" source="wxU6UQ4t3PHvKsyx-IZS-34" target="wxU6UQ4t3PHvKsyx-IZS-10">
          <mxGeometry relative="1" as="geometry">
            <Array as="points">
              <mxPoint x="710" y="1120" />
              <mxPoint x="710" y="1250" />
            </Array>
          </mxGeometry>
        </mxCell>
        <mxCell id="wxU6UQ4t3PHvKsyx-IZS-34" value="số tiền điện =&amp;nbsp;số điện*30000" style="rounded=0;whiteSpace=wrap;html=1;" vertex="1" parent="1">
          <mxGeometry x="480" y="1090" width="120" height="60" as="geometry" />
        </mxCell>
      </root>
    </mxGraphModel>
  </diagram>
</mxfile>
